<?xml version="1.0" encoding="UTF-8"?><svg id="Layer_1" xmlns="http://www.w3.org/2000/svg" width="1868.66039" height="1000" viewBox="0 0 1868.66039 1000"><path d="m1016.47199,599.65347c3.67548,22.03133-6.19141,44.29655-19.65736,62.11668-13.46595,17.82013-30.55017,32.60139-44.61653,49.95149-18.30471,22.57784-31.50151,50.3367-31.94778,79.39908-.44627,29.06238,13.5269,59.1581,38.86003,73.40778,14.17854,7.9753,30.88015,10.64412,47.13432,9.98239,43.0179-1.75132,81.9779-25.40738,116.079-51.68897,47.76957-36.81583,90.19254-80.00168,135.19792-120.14957,48.69573-43.43993,101.41204-83.91508,162.07946-107.95187,107.07361-42.4232,229.02933-29.44545,338.49734,6.34897,34.21921,11.18918,67.61251,24.46735,100.56216,38.87534" style="fill:none; stroke:#000; stroke-linecap:round; stroke-miterlimit:10; stroke-width:15px;"/><path d="m1132.03265,252.9743c29.43874,109.86686-9.10937,322.26212-118.97622,351.70086-109.86686,29.43874-249.44813-135.22691-278.88686-245.09377-29.43874-109.86686,35.76114-222.79635,145.628-252.23509,109.86686-29.43874,222.79635,35.76114,252.23509,145.628Z" style="fill:red; stroke-width:0px;"/><text transform="translate(659.83324 -78.28027)" style="font-family:SequelSans-RomanBody, &apos;Sequel Sans&apos;; font-size:60px;"><tspan x="0" y="0" style="letter-spacing:-.012em;">P</tspan><tspan x="41.28027" y="0">artyKit </tspan><tspan x="253.13818" y="0" style="letter-spacing:-.00999em;">L</tspan><tspan x="291.05859" y="0">ogo Mini</tspan></text></svg>