<?xml version="1.0" encoding="UTF-8"?><svg id="Layer_1" xmlns="http://www.w3.org/2000/svg" width="2000" height="1000" viewBox="0 0 2000 1000"><path d="m648.11841,919.99918c-4.89685-.02995-9.78052-.88076-14.43042-2.55515-12.1077-4.35845-21.58254-13.81429-25.997-25.93889l-116.74987-321.02674c-.77892-1.5282-1.47167-3.12121-2.07419-4.77494-.61059-1.67012-1.10673-3.35587-1.50072-5.04916l-108.37908-298.00155c-5.4186-14.8917-1.55345-27.14537,1.23593-33.1281,4.80074-10.29975,13.36425-18.11776,24.1052-22.0138l196.92803-71.62213c124.86825-45.40485,253.37525,3.40392,292.55435,111.1251,19.58955,53.86059,13.31012,112.27212-17.68206,164.48371-29.03196,48.91124-77.02112,87.48361-135.13063,108.61962l-155.40075,56.51519,103.71977,285.17704c4.40636,12.11229,3.22615,25.44429-3.24189,36.56295-5.10177,8.76631-13.18087,15.51311-22.75118,18.99564-4.90386,1.78342-10.0595,2.66268-15.20548,2.63121Zm38.17766-57.09327l.04084.00025-.04084-.00025Zm-210.93366-589.37955l80.73203,221.97946,155.39666-56.51521c79.0962-28.76367,123.32778-100.0495,100.6936-162.28921-22.63831-62.23156-102.33757-88.45806-181.42158-59.68614l-155.40072,56.5111Z" style="stroke-width:0px;"/><path d="m1575.98208,789.51834c-18.02386,3.44568-36.94468-4.99996-45.90759-21.99818l-137.04253-260.67212-83.8686,91.51225-7.58062,134.15668c-.85828,15.2166-9.85249,28.94064-23.48408,35.82953-13.90833,7.02912-30.66618,6.09126-43.70596-2.45578-12.79207-8.38233-20.19751-23.06282-19.323-38.30331l28.30332-501.03363c.82908-15.17359,9.82995-28.92801,23.48408-35.82953,13.89954-7.0316,30.6614-6.0945,43.70596,2.45578,12.79207,8.38233,20.19751,23.06282,19.323,38.30331l-13.08887,231.73709,225.65689-246.22797c9.87473-11.20621,25.07589-16.54063,40.09568-13.73197,16.88238,3.1553,30.25818,15.89605,34.08,32.45087,3.28034,14.20086-1.0166,28.93966-11.03793,39.20505l-151.02301,164.78914,151.37532,287.94562c6.14134,11.67879,6.4972,25.78591.95829,37.74748-3.92402,8.4677-10.65092,15.54186-18.94243,19.91293-3.86052,2.03537-7.89419,3.42607-11.97794,4.20677Zm-44.04641-22.89871l.04012-.00767-.04012.00767Zm-233.35845-34.2724.00454-.06324h0c-.00077-.00401.00248-.00879.00171-.0128l-.00171.0128Zm-80.50464-4.56048c-.0036.04643-.00643.09687-.01003.14329.00419-.02159.00437-.04242.00779-.06802l.00224-.07528Zm390.1564-459.30404l.00077.00401-.00077-.00401Zm.07463-.1099c.00077.00401-.00324.00478-.00248.00879-.00077-.00401.00324-.00478.00248-.00879Zm.0397-.05333l-.00973.01434.00973-.01434Zm-34.56826-23.54224l.04012-.00767-.04012.00767Zm-23.28695-32.39355c-.00802.00153-.01127.00631-.01451.01109.00324-.00478.00649-.00956.01451-.01109Zm.04678-.03805c-.00726.00555-.01776.01587-.02501.02141.00649-.00956.01776-.01587.02501-.02141Zm.06206-.04513l-.04354.03327.04354-.03327Zm-223.71357,18.96265l-.00755.1345c.00035-.04165.00395-.08808.00755-.1345Zm-80.50936-4.47641c-.00342.0256-.00283.05044-.00702.07203l.00702-.07203Z" style="stroke-width:0px;"/><path d="m1147.81161,599.65347c3.67548,22.03133-6.19141,44.29655-19.65736,62.11668-13.46595,17.82013-30.55017,32.60139-44.61653,49.95149-18.30471,22.57784-31.50151,50.3367-31.94778,79.39908-.44627,29.06238,13.5269,59.1581,38.86003,73.40778,14.17854,7.9753,30.88015,10.64412,47.13432,9.98239,43.0179-1.75132,81.9779-25.40738,116.079-51.68897,47.76957-36.81583,90.19254-80.00168,135.19792-120.14957,48.69573-43.43993,101.41204-83.91508,162.07946-107.95187,107.07361-42.4232,229.02933-29.44545,338.49734,6.34897,34.21921,11.18917,67.6125,24.46735,100.56215,38.87534" style="fill:none; stroke:#000; stroke-linecap:round; stroke-miterlimit:10; stroke-width:15px;"/><path d="m1263.37227,252.9743c29.43874,109.86686-9.10937,322.26212-118.97622,351.70086-109.86686,29.43874-249.44813-135.22691-278.88686-245.09377-29.43874-109.86686,35.76114-222.79635,145.628-252.23509,109.86686-29.43874,222.79635,35.76114,252.23509,145.628Z" style="fill:red; stroke-width:0px;"/><text transform="translate(738.10303 -78.28027)" style="font-family:SequelSans-RomanBody, &apos;Sequel Sans&apos;; font-size:60px;"><tspan x="0" y="0" style="letter-spacing:-.012em;">P</tspan><tspan x="41.28027" y="0">artyKit </tspan><tspan x="253.13867" y="0" style="letter-spacing:-.00999em;">L</tspan><tspan x="291.05908" y="0">ogo Full</tspan></text></svg>