{
  "accessors": [
    {
      "bufferView": 0,
      "componentType": 5125,
      "count": 43920,
      "type": "SCALAR"
    },
    {
      "bufferView": 1,
      "componentType": 5126,
      "count": 8368,
      "max": [
        0.040000004932448985,
        0.04901464437471034,
        0.02136693622968625
      ],
      "min": [
        -0.040000004932448985,
        -0.04901464437471037,
        -0.02136693622968625
      ],
      "type": "VEC3"
    },
    {
      "bufferView": 2,
      "componentType": 5126,
      "count": 8368,
      "max": [
        0.9999999502264267,
        0.9999976824124734,
        0.9998706813602742
      ],
      "min": [
        -0.9999991974863908,
        -0.999994854086289,
        -1.0
      ],
      "type": "VEC3"
    },
    {
      "bufferView": 3,
      "componentType": 5126,
      "count": 8368,
      "max": [
        1.0,
        0.5823274033995512
      ],
      "min": [
        0.0,
        0.0
      ],
      "type": "VEC2"
    }
  ],
  "asset": {
    "generator": "Adobe Illustrator",
    "version": "2.0"
  },
  "bufferViews": [
    {
      "buffer": 0,
      "byteLength": 175680,
      "target": 34963
    },
    {
      "buffer": 0,
      "byteLength": 100416,
      "byteOffset": 175680,
      "target": 34962
    },
    {
      "buffer": 0,
      "byteLength": 100416,
      "byteOffset": 276096,
      "target": 34962
    },
    {
      "buffer": 0,
      "byteLength": 66944,
      "byteOffset": 376512,
      "target": 34962
    }
  ],
  "buffers": [
    {
      "byteLength": 443456,
      "uri": "data:application/octet-stream;base64,"
    }
  ],
  "materials": [
    {
      "doubleSided": true,
      "pbrMetallicRoughness": {
        "baseColorFactor": [
          0.9999999403953552,
          0.0,
          0.0,
          1.0
        ],
        "metallicFactor": 0.41264817118644714,
        "roughnessFactor": 0.18194369971752167
      }
    }
  ],
  "meshes": [
    {
      "primitives": [
        {
          "attributes": {
            "NORMAL": 2,
            "POSITION": 1,
            "TEXCOORD_0": 3
          },
          "indices": 0,
          "material": 0,
          "mode": 4
        }
      ]
    }
  ],
  "nodes": [
    {
      "mesh": 0
    }
  ],
  "scenes": [
    {
      "nodes": [
        0
      ]
    }
  ]
}
