{
  "accessors": [
    {
      "bufferView": 0,
      "componentType": 5125,
      "count": 82590,
      "type": "SCALAR"
    },
    {
      "bufferView": 1,
      "componentType": 5126,
      "count": 16365,
      "max": [
        0.040000004103690395,
        0.02483915145291153,
        0.014114778672448794
      ],
      "min": [
        -0.040000004103690395,
        -0.024839151452911545,
        -0.014114778672448793
      ],
      "type": "VEC3"
    },
    {
      "bufferView": 2,
      "componentType": 5126,
      "count": 16365,
      "max": [
        0.9999996128354364,
        0.999998949971126,
        0.9999999997066431
      ],
      "min": [
        -0.9999996857259235,
        -0.9999979286324857,
        -0.9999999997066431
      ],
      "type": "VEC3"
    },
    {
      "bufferView": 3,
      "componentType": 5126,
      "count": 16365,
      "max": [
        0.7662840186007378,
        1.0
      ],
      "min": [
        0.0,
        0.0
      ],
      "type": "VEC2"
    }
  ],
  "asset": {
    "generator": "Adobe Illustrator",
    "version": "2.0"
  },
  "bufferViews": [
    {
      "buffer": 0,
      "byteLength": 330360,
      "target": 34963
    },
    {
      "buffer": 0,
      "byteLength": 196380,
      "byteOffset": 330360,
      "target": 34962
    },
    {
      "buffer": 0,
      "byteLength": 196380,
      "byteOffset": 526740,
      "target": 34962
    },
    {
      "buffer": 0,
      "byteLength": 130920,
      "byteOffset": 723120,
      "target": 34962
    }
  ],
  "buffers": [
    {
      "byteLength": 854040,
      "uri": "data:application/octet-stream;base64,"
    }
  ],
  "materials": [
    {
      "doubleSided": true,
      "pbrMetallicRoughness": {
        "baseColorFactor": [
          0.89453125,
          0.16015625,
          0.140625,
          1.0
        ],
        "metallicFactor": 0.0,
        "roughnessFactor": 0.15
      }
    }
  ],
  "meshes": [
    {
      "primitives": [
        {
          "attributes": {
            "NORMAL": 2,
            "POSITION": 1,
            "TEXCOORD_0": 3
          },
          "indices": 0,
          "material": 0,
          "mode": 4
        }
      ]
    }
  ],
  "nodes": [
    {
      "mesh": 0
    }
  ],
  "scenes": [
    {
      "nodes": [
        0
      ]
    }
  ]
}
