<svg width="16" height="16" viewBox="0 0 16 16" fill="none" xmlns="http://www.w3.org/2000/svg">
<path d="M8.94362 3.36024L8.90533 3.35173L9.44355 0.856323C6.29504 0.271295 3.14865 -0.61582 0.00439453 0.630822V4.99619C2.85082 3.86868 5.69512 4.48988 8.54155 5.0515H8.54367L8.00545 7.54904C10.671 8.0745 13.3345 8.55103 16.0001 7.49373V3.12836C13.6472 4.06015 11.2944 3.79848 8.94362 3.36024Z" fill="#191919" style="fill:#191919;fill:color(display-p3 0.0980 0.0980 0.0980);fill-opacity:1;"/>
<path d="M7.58834 10.1765L7.44155 10.1467L7.97765 7.65133C5.31843 7.12587 2.65922 6.65572 0 7.70877V12.072C2.35926 11.1381 4.71851 11.404 7.07564 11.8401L6.54167 14.3377C9.69444 14.9227 12.8451 15.8162 15.9978 14.5696V10.2063C13.194 11.3147 10.3922 10.7318 7.58621 10.1765H7.58834Z" fill="#191919" style="fill:#191919;fill:color(display-p3 0.0980 0.0980 0.0980);fill-opacity:1;"/>
</svg>
