<?xml version="1.0" encoding="UTF-8"?><svg id="Layer_1" xmlns="http://www.w3.org/2000/svg" width="2000" height="1300" viewBox="0 0 2000 1300"><path d="m502.33932,653.49798c-2.68205-.0164-5.35687-.4824-7.90366-1.39948-6.63148-2.38716-11.82093-7.5662-14.23877-14.20694l-63.94484-175.82892c-.42662-.837-.80604-1.70951-1.13605-2.61527-.33443-.91474-.60617-1.83804-.82196-2.76547l-59.36009-163.21784c-2.96781-8.1563-.85084-14.86774.67693-18.14452,2.62941-5.64125,7.31971-9.92324,13.20261-12.05714l107.85906-39.22802c68.39134-24.8686,138.77566,1.86435,160.23437,60.86411,10.72936,29.49988,7.29006,61.49234-9.6846,90.08905-15.90104,26.78908-42.18508,47.91548-74.01213,59.49184l-85.11424,30.95382,56.80815,156.19376c2.4134,6.634,1.76699,13.93604-1.77561,20.02582-2.79428,4.80138-7.21927,8.49666-12.46101,10.40407-2.68588.97679-5.50967,1.45837-8.32816,1.44113Zm20.91021-31.27044l.02237.00014-.02237-.00014Zm-115.53006-322.80791l44.21758,121.57993,85.112-30.95384c43.32163-15.7541,67.54762-54.79792,55.1507-88.8871-12.39919-34.08473-56.05111-48.44919-99.36605-32.69058l-85.11422,30.95159Z" style="stroke-width:0px;"/><path d="m686.06386,610.19065c-2.41585-.01478-4.85853-.39882-7.25398-1.1897-11.5464-3.80862-18.17261-15.47029-15.59717-27.28372l60.01954-286.21985c.83638-3.98119,2.71562-7.66744,5.44528-10.68186,3.75213-4.13784,8.82657-6.85606,14.28968-7.65034l13.4203-1.93121c5.50792-.80742,11.20041.3951,16.0007,3.3661,3.4253,2.117,6.23013,5.1004,8.13672,8.6465l99.81177,185.85076c.94674,1.38154,1.743,2.86282,2.37547,4.42363l36.17835,67.36663c5.82721,10.63,2.75195,23.6998-7.2919,30.61329-10.1517,6.99113-24.14092,5.01755-31.84285-4.49424-.90584-1.11956-1.70381-2.32123-2.38503-3.59153l-29.73924-55.47122-125.35026,18.04863-12.87259,61.60615c-.3019,1.44772-.74453,2.86326-1.31883,4.22655-3.77251,8.93382-12.67349,14.42263-22.02598,14.36543Zm74.08175-261.43305l-27.65564,132.36778,91.5532-13.18186-63.89756-119.18592Z" style="stroke-width:0px;"/><path d="m1154.34713,561.2752c-.65765-.00402-1.31961-.03491-1.98811-.09269l-100.11132-9.22468c-30.16441-2.77939-57.72924-15.10152-77.61027-34.69831-21.34638-21.03966-31.67192-48.1681-29.06997-76.38742,4.27224-46.38461,42.35126-81.30371,91.98449-88.82065l-67.52983-141.22902c-5.56173-11.60818-.57257-25.61922,11.12093-31.23189,11.88867-5.70318,26.14187-.80649,31.77452,10.91173l77.50894,162.45641,56.38501,5.19464,13.08218-141.95963c1.19555-12.96497,12.84392-22.53737,25.91626-21.34116,13.09471,1.19634,22.79541,12.71575,21.62449,25.6764l-29.81714,319.36208c-1.15413,12.41045-11.18419,21.45811-23.27017,21.38419Zm-95.91219-163.62483c-34.9583-.21381-63.14507,19.65943-65.71603,47.56576-2.76275,30.00345,25.28262,56.29178,63.84888,59.84734l76.06164,7.00614,9.85972-107.01749-76.05939-7.00837c-2.69853-.24691-5.36646-.37732-7.99482-.39339Z" style="stroke-width:0px;"/><path d="m1267.06938,579.4735c-2.29282-.01402-4.62842-.35043-6.93948-1.04014-4.18223-1.24921-7.95762-3.54955-10.91383-6.65244-5.87463-6.16751-8.01934-15.03685-5.59852-23.14901l110.8141-372.42684-99.76695-29.68652c-8.35784-2.48496-14.7818-9.17704-16.76227-17.46824-1.94778-8.15007.62168-16.79149,6.70572-22.55254,6.19203-5.86106,15.22659-7.95331,23.58892-5.47056l120.6872,35.91026c.73283.14765,1.46545.32885,2.19562.54583.719.21467,1.42214.46057,2.11169.73546l121.21641,36.06785c12.79018,3.80504,20.16249,17.10204,16.43278,29.64437-2.16291,7.27263-7.75967,13.09707-14.97348,15.58074-4.81743,1.65946-9.99885,1.7508-14.99167.26623l-100.28946-29.84183-110.28929,372.57098c-.00458.01787-.00917.03574-.01374.05137-3.08536,10.33166-12.74058,16.97909-23.21375,16.91504Zm20.46316-17.7931l-.0114.03572c.00454-.01116.0091-.02455.0114-.03572Zm-19.1989-5.67409l.02237.00014-.02237-.00014Zm233.01246-337.80927h0Z" style="stroke-width:0px;"/><path d="m1432.2972,643.54691c-3.62378-.02216-7.29389-.88124-10.72122-2.66719-11.50837-6.00287-16.00937-20.2375-10.03118-31.73259l42.11727-80.71905,6.88962-192.33862c.01639-.48533.04844-.97056.09838-1.45568,1.22016-12.23332,11.27265-21.29203,23.45705-21.21751.12303.00075.2483.00152.37355.00452,12.18327.26018,22.2707,9.9946,22.96134,22.16132.03826.6937.04743,1.38946.02305,2.08277l-5.08818,148.33919,118.76472-89.0282c.57081-.42825,1.16158-.82729,1.76786-1.20163,10.37599-6.35669,24.11007-3.63081,31.27542,6.19759,7.26293,9.96769,5.64736,23.57658-3.75711,31.65274-.37781.32653-.76896.63955-1.16898.9391l-153.68669,115.42579-42.22595,80.9309c-4.22361,8.07653-12.50624,12.6788-21.04896,12.62655Z" style="stroke-width:0px;"/><path d="m755.99321,1091.33089c-10.0504-.06147-19.3207-6.60766-22.33264-16.69252l-45.97069-154.6108-54.7773,40.27074-18.31171,71.2814c-2.07616,8.08519-8.36556,14.5049-16.42131,16.75973-8.21934,2.3008-17.12424.0183-23.22374-5.9582-5.98388-5.86171-8.40493-14.53589-6.31752-22.63219l68.38431-266.21478c2.0559-8.06518,8.35211-14.50051,16.42131-16.75973,8.21487-2.30307,17.12201-.02055,23.22374,5.9582,5.98388,5.86171,8.40493,14.53589,6.31752,22.63219l-31.62794,123.12934,147.38436-108.3552c6.49531-4.97336,15.22945-6.22634,23.00189-3.12308,8.73647,3.48721,14.57143,11.75276,14.86799,21.05373.25543,7.97865-3.6177,15.44216-10.09192,19.89443l-98.63824,72.51707,50.77746,170.78676c2.0604,6.92712.75439,14.54502-3.49134,20.38443-3.00718,4.13345-7.37253,7.22064-12.29169,8.68933-2.29038.68393-4.60538,1.00308-6.88254.98916Zm-21.237-16.97886l.02237.00014-.02237-.00014Zm-121.75227-43.1825.00915-.0335h0c.00001-.00224.00226-.00446.00228-.0067l-.00228.0067Zm-42.77327-10.99466c-.00686.02456-.01374.05137-.0206.07593.00454-.01116.00685-.02233.0114-.03572l.00919-.04021Zm258.38871-205.38782v.00224s0-.00224,0-.00224Zm.05176-.05113c-.00001.00224-.00225.00222-.00226.00446.00001-.00224.00225-.00222.00226-.00446Zm.02699-.02444l-.00675.00667.00675-.00667Zm-16.07584-16.3187l.02237.00014-.02237-.00014Zm-9.07468-19.87743c-.00447-.00003-.00672.0022-.00897.00442.00225-.00222.0045-.00445.00897-.00442Zm.02918-.01548c-.00449.00221-.01123.00664-.01571.00885.0045-.00445.01123-.00664.01571-.00885Zm.03814-.01766l-.02692.01326.02692-.01326Zm-122.21981-13.55425l-.01833.07147c.00461-.02234.01147-.04691.01833-.07147Zm-42.78473-10.94999c-.00456.01339-.00687.0268-.01142.03796l.01142-.03796Z" style="stroke-width:0px;"/><path d="m1311.20199,1049.24643c-1.2124-.00742-2.42424-.10654-3.62208-.29954-8.30899-1.32814-15.30722-7.02604-18.26128-14.87132l-88.8396-235.18748-57.7761,21.81964c-7.96648,3.02042-16.96606,1.5874-23.47224-3.73168-6.4327-5.2627-9.59386-13.62599-8.2485-21.82527,1.36162-8.2976,7.17153-15.32199,15.1648-18.3333l78.20222-29.53535c1.10151-.51448,2.24052-.94373,3.40586-1.28781l78.57666-29.67622c.00672-.0022.01121-.00441.01794-.0066,12.25786-4.62046,25.94234,1.46059,30.50793,13.54587,4.5678,12.08976-1.68055,25.69716-13.92735,30.33782l-58.12364,21.95173,89.1648,235.05078c.00661.0157.01323.0314.01759.04932,4.57421,12.13902-1.72585,25.7886-14.04423,30.42882-2.80942,1.05881-5.78114,1.58869-8.7428,1.57058Zm20.96676-31.373l.01322.03364-.01322-.03364Zm-189.82412-198.20138l-.0269.00878c.00896-.00218.01794-.0066.0269-.00878Zm-15.81245-41.82768c-.01121.00441-.02466.0088-.03812.01543l.03812-.01543Zm175.97029-18.66291l-.00449.00221c.00224.00001.00449-.00221.00449-.00221h0Z" style="stroke-width:0px;"/><path d="m1032.81161,919.37583c3.67548,22.03133-6.19141,44.29655-19.65736,62.11668-13.46595,17.82013-30.55017,32.60139-44.61653,49.95149-18.30471,22.57784-31.50151,50.3367-31.94778,79.39908-.44627,29.06238,13.5269,59.1581,38.86003,73.40778,14.17854,7.9753,30.88015,10.64412,47.13432,9.98239,43.0179-1.75132,81.9779-25.40738,116.079-51.68897,47.76957-36.81583,90.19254-80.00168,135.19792-120.14957,48.69573-43.43993,101.41204-83.91508,162.07946-107.95187,107.07361-42.4232,229.02933-29.44545,338.49734,6.34897,74.45135,24.34449,144.99303,58.57777,215.56209,92.82097" style="fill:none; stroke:#000; stroke-linecap:round; stroke-miterlimit:10; stroke-width:15px;"/><path d="m1148.37227,572.69666c29.43874,109.86686-9.10937,322.26212-118.97622,351.70086-109.86686,29.43874-249.44813-135.22691-278.88686-245.09377-29.43874-109.86686,35.76114-222.79635,145.628-252.23509,109.86686-29.43874,222.79635,35.76114,252.23509,145.628Z" style="fill:red; stroke-width:0px;"/></svg>